<svg xmlns="http://www.w3.org/2000/svg" width="512" height="512" viewBox="0 0 512 512"><path fill="#5b5b5b" d="M149 149L149 42L256 42ZM256 42L363 42L363 149ZM363 363L363 470L256 470ZM256 470L149 470L149 363ZM42 256L42 149L149 149ZM363 149L470 149L470 256ZM470 256L470 363L363 363ZM149 363L42 363L42 256Z"/><path fill="#c5c1ea" d="M149 42L149 149L95.5 149ZM470 149L363 149L363 95.5ZM363 470L363 363L416.5 363ZM42 363L149 363L149 416.5Z"/><path fill="#8c84d6" d="M149 149L256 149L256 166.1L211.1 256L149 256ZM363 149L363 256L345.9 256L256 211.1L256 149ZM363 363L256 363L256 345.9L300.9 256L363 256ZM149 363L149 256L166.1 256L256 300.9L256 363Z"/></svg>